<svg width="20" height="20" viewBox="0 0 20 20" fill="none" xmlns="http://www.w3.org/2000/svg">
<path d="M4.16666 4.99999C4.16666 4.11593 4.51785 3.26809 5.14297 2.64297C5.76809 2.01785 6.61593 1.66666 7.49999 1.66666H12.5C13.384 1.66666 14.2319 2.01785 14.857 2.64297C15.4821 3.26809 15.8333 4.11593 15.8333 4.99999V16.6667C15.8333 17.1087 15.6577 17.5326 15.3452 17.8452C15.0326 18.1577 14.6087 18.3333 14.1667 18.3333H5.83332C5.3913 18.3333 4.96737 18.1577 4.65481 17.8452C4.34225 17.5326 4.16666 17.1087 4.16666 16.6667V4.99999Z" stroke="#00bc90" stroke-width="1.66667" stroke-linecap="round" stroke-linejoin="round"/>
<path d="M4.16666 8.33334H15.8333" stroke="#00bc90" stroke-width="1.66667" stroke-linecap="round" stroke-linejoin="round"/>
<path d="M12.5 5.83334V10.8333" stroke="#00bc90" stroke-width="1.66667" stroke-linecap="round" stroke-linejoin="round"/>
</svg>
